<svg fill="currentColor" width="current" height="current" viewBox="0 0 54 10" class="sc-gKXOVf egNAkr"><path d="M11.1228 2.29382C9.08499 2.29382 7.49255 3.76246 7.49255 5.63875V5.67654C7.49255 7.53663 9.0742 8.99717 11.0958 8.99717C13.1174 8.99717 14.7287 7.52853 14.7287 5.65224V5.62795C14.7287 3.75166 13.1444 2.29382 11.1228 2.29382ZM12.8907 5.67654C12.8979 5.90825 12.8566 6.13891 12.7696 6.35376C12.6826 6.56862 12.5517 6.76294 12.3853 6.9243C12.2189 7.08566 12.0207 7.2105 11.8033 7.29084C11.5859 7.37117 11.3541 7.40524 11.1228 7.39085C10.8895 7.39959 10.6569 7.36103 10.4389 7.27748C10.2209 7.19393 10.0221 7.06712 9.8544 6.90468C9.68671 6.74225 9.55361 6.54755 9.46313 6.33231C9.37265 6.11706 9.32666 5.88573 9.32791 5.65224V5.62795C9.32112 5.39635 9.36262 5.16588 9.44979 4.95122C9.53695 4.73655 9.66786 4.5424 9.83417 4.38112C10.0005 4.21985 10.1986 4.09499 10.4158 4.01451C10.633 3.93402 10.8646 3.89967 11.0958 3.91364C11.3291 3.9049 11.5617 3.94346 11.7797 4.02701C11.9977 4.11056 12.1965 4.23737 12.3642 4.39981C12.5319 4.56224 12.665 4.75694 12.7554 4.97218C12.8459 5.18743 12.8919 5.41875 12.8907 5.65224V5.67654Z"></path><path d="M23.6924 2.2938C23.2528 2.28634 22.8162 2.36803 22.4091 2.53394C22.0019 2.69985 21.6326 2.94653 21.3234 3.25912C21.0141 3.5717 20.7714 3.94371 20.6098 4.35269C20.4483 4.76167 20.3712 5.19914 20.3833 5.63873V5.67652C20.3833 7.59871 21.8543 8.99715 23.8786 8.99715C24.395 9.01829 24.9095 8.92132 25.3828 8.71361C25.8562 8.50589 26.2759 8.19291 26.61 7.79848L26.6262 7.77959L25.5142 6.83469L25.498 6.84819C25.2899 7.05868 25.0412 7.22466 24.767 7.33604C24.4928 7.44743 24.1988 7.50189 23.9029 7.49612C23.0932 7.49612 22.5318 7.09386 22.3266 6.36494L22.3077 6.29475H26.9231V6.27316C26.9231 6.11657 26.9474 5.94109 26.9474 5.79531C26.9555 3.2063 25.1957 2.2938 23.6924 2.2938ZM22.2834 5.13658L22.2969 5.06639C22.4859 4.25648 23.0338 3.79753 23.803 3.79753C24.1628 3.787 24.5134 3.91175 24.7858 4.14715C25.0581 4.38255 25.2323 4.71151 25.274 5.06909V5.13658H22.2834Z"></path><path d="M35.6784 2.40448C33.6434 2.40448 32.0482 3.87311 32.0482 5.7494V5.7872C32.0482 7.64729 33.6326 9.10782 35.6542 9.10782C37.6757 9.10782 39.2844 7.63919 39.2844 5.7629V5.7386C39.2844 3.86232 37.7 2.40448 35.6784 2.40448ZM37.4463 5.7872C37.4535 6.0189 37.4123 6.24956 37.3253 6.46442C37.2383 6.67928 37.1074 6.8736 36.941 7.03496C36.7746 7.19632 36.5763 7.32116 36.3589 7.40149C36.1415 7.48183 35.9098 7.51589 35.6784 7.5015C35.4452 7.51025 35.2125 7.47169 34.9946 7.38813C34.7766 7.30458 34.5778 7.17777 34.4101 7.01534C34.2424 6.8529 34.1093 6.6582 34.0188 6.44296C33.9283 6.22772 33.8823 5.99639 33.8836 5.7629V5.7386C33.8768 5.50677 33.9183 5.27606 34.0057 5.06119C34.093 4.84633 34.2241 4.65204 34.3907 4.49073C34.5574 4.32942 34.7558 4.20462 34.9733 4.12431C35.1908 4.044 35.4227 4.00994 35.6542 4.0243C35.8873 4.01554 36.1198 4.05412 36.3376 4.1377C36.5555 4.22128 36.7541 4.34813 36.9216 4.51061C37.0891 4.67308 37.2219 4.86781 37.3121 5.08304C37.4023 5.29827 37.448 5.52954 37.4463 5.7629V5.7872Z"></path><path d="M42.313 0.169128H40.3778V8.90534H42.313V0.169128Z"></path><path d="M45.7058 2.84186H43.7841V8.90537H45.7058V2.84186Z"></path><path d="M50.3967 2.29382C48.3589 2.29382 46.7665 3.76246 46.7665 5.63875V5.67654C46.7665 7.53663 48.3481 8.99717 50.3697 8.99717C52.3913 8.99717 54 7.52853 54 5.65224V5.62795C54 3.75166 52.4183 2.29382 50.3967 2.29382ZM52.1646 5.67654C52.1718 5.90825 52.1306 6.13891 52.0436 6.35376C51.9565 6.56862 51.8256 6.76294 51.6592 6.9243C51.4928 7.08566 51.2946 7.2105 51.0772 7.29084C50.8598 7.37117 50.628 7.40524 50.3967 7.39085C50.1634 7.39959 49.9308 7.36103 49.7128 7.27748C49.4948 7.19393 49.296 7.06712 49.1283 6.90468C48.9606 6.74225 48.8275 6.54755 48.7371 6.33231C48.6466 6.11706 48.6006 5.88573 48.6018 5.65224V5.62795C48.5946 5.39624 48.6359 5.16558 48.7229 4.95073C48.8099 4.73587 48.9408 4.54155 49.1072 4.38019C49.2736 4.21883 49.4718 4.09399 49.6892 4.01365C49.9066 3.93331 50.1384 3.89925 50.3697 3.91364C50.603 3.9049 50.8356 3.94346 51.0536 4.02701C51.2716 4.11056 51.4704 4.23737 51.6381 4.39981C51.8058 4.56224 51.9389 4.75694 52.0294 4.97218C52.1199 5.18743 52.1658 5.41875 52.1646 5.65224V5.67654Z"></path><path d="M18.2321 7.10197L18.197 7.05337C18.1188 6.89721 18.0842 6.72275 18.0972 6.54853V4.07291H19.4764V2.54758H18.0972V0.817078H16.3212V2.54758H15.2416V4.07291H16.3212V7.04258C16.3212 8.39242 16.8745 8.98366 18.1782 8.98366C18.6917 9.01212 19.2048 8.91965 19.6761 8.71369V7.18026C18.8799 7.35574 18.3887 7.32874 18.2321 7.10197Z"></path><path d="M30.44 0.00716478C30.1589 -0.00282185 29.8786 0.0436348 29.6158 0.143791C29.353 0.243947 29.1128 0.395772 28.9096 0.590299C28.5534 0.93316 28.3698 1.4596 28.3698 2.15342V2.54758H27.4062V4.07291H28.3698V8.91616H30.2592V4.07291H31.8138V2.55028H30.2376V2.25601C30.2376 1.88615 30.4724 1.64858 30.9042 1.58919C31.2127 1.55797 31.5242 1.57528 31.8273 1.64048V0.161047H31.8111C31.3662 0.031661 30.9025 -0.0203889 30.44 0.00716478V0.00716478Z"></path><path d="M44.7422 1.99953C45.2863 1.99953 45.7274 1.55835 45.7274 1.01414C45.7274 0.469921 45.2863 0.0287476 44.7422 0.0287476C44.1981 0.0287476 43.7571 0.469921 43.7571 1.01414C43.7571 1.55835 44.1981 1.99953 44.7422 1.99953Z"></path><path d="M3.81376 2.1669C3.16934 2.14028 2.53781 2.35276 2.04049 2.76354L1.94872 2.84453V2.36938H0V8.91614H1.94872V5.40654C1.93221 5.21139 1.95577 5.01492 2.01797 4.82921C2.08017 4.6435 2.17968 4.47248 2.31039 4.32666C2.57422 4.07613 2.92646 3.94024 3.29015 3.9487C3.63849 3.94077 3.97855 4.05543 4.25101 4.27267C4.36288 4.38554 4.4494 4.52099 4.50478 4.66996C4.56017 4.81893 4.58315 4.97801 4.5722 5.13657V8.91614H6.5614V4.92329C6.58094 4.55526 6.52385 4.18717 6.39376 3.84236C6.26367 3.49754 6.06341 3.18349 5.80567 2.92012C5.26172 2.42466 4.54937 2.15529 3.81376 2.1669V2.1669Z"></path><defs></defs></svg>