<svg width="current" height="current" fill="currentColor" viewBox="0 0 12 12" class="sc-gKXOVf ibWZdo">
    <path stroke-width="3" fill-rule="evenodd" clip-rule="evenodd" d="M5.16483 8.33C3.41907 8.33 1.99996 6.91 1.99996 5.165C1.99996 3.41917 3.41907 1.99917 5.16483 1.99917C6.91059 1.99917 8.32969 3.41917 8.32969 5.165C8.32969 6.91 6.91059 8.33 5.16483 8.33ZM10.8538 10.1483L8.42886 7.7225C8.98467 7.015 9.32965 6.13417 9.32965 5.165C9.32965 2.86417 7.46473 1 5.16483 1C2.86492 1 1 2.86417 1 5.165C1 7.465 2.86492 9.32917 5.16483 9.32917C6.13395 9.32917 7.01558 8.98417 7.72222 8.42917L10.1471 10.8533C10.2454 10.9517 10.3729 11 10.5004 11C10.6288 11 10.7563 10.9517 10.8538 10.8533C11.0487 10.6592 11.0487 10.3417 10.8538 10.1483Z"></path>
    <defs></defs>
</svg>
